<?xml version="1.0" encoding="UTF-8"?>
<svg id="Layer_1" xmlns="http://www.w3.org/2000/svg" version="1.1" viewBox="0 0 321.6 104.6">
  <!-- Generator: Adobe Illustrator 29.8.2, SVG Export Plug-In . SVG Version: 2.1.1 Build 3)  -->
  <defs>
    <style>
      .st0 {
        fill: #ff1717;
      }

      .st1 {
        fill: #060604;
      }

      .st2 {
        fill: #fff;
      }

      .st3 {
        fill: #00ed38;
      }
    </style>
  </defs>
  <g>
    <path class="st2" d="M262.5,20.2c0,.5-.3,5.3,0,5.3h5v35.8h-5c0,1.7,0,3.4,0,5-8.5,0-17,0-25.4,0,0,1.7,0,3.4,0,5-1.8,0-3.5,0-5.3,0v10.3c1.8,0,3.5,0,5.3,0,0,1.7,0,3.4,0,5-3.4,0-6.9,0-10.3,0,0-1.7,0-3.4,0-5-1.7,0-3.4,0-5,0,0-3.4,0-6.9,0-10.3-1.8,0-3.5,0-5.3,0,0-1.7,0-3.4,0-5-56.1-.2-112.2.2-168.2,0,0-1.7,0-3.4,0-5-1.8,0-3.5,0-5.3,0,0-11.9-.1-23.9,0-35.8.8,0,4.9.2,5.2-.2.2-1.7,0-3.4.1-5.1,71.4.4,142.9-.5,214.3,0Z"/>
    <path d="M48.1,20.2c0,1.7,0,3.4-.1,5.1-.3.4-4.4.2-5.2.2,0-.8-.2-4.9.2-5.2h5.1Z"/>
    <path d="M262.5,15.1v5c-71.4-.5-142.9.4-214.3,0,0-1.7,0-3.4,0-5h214.3Z"/>
    <path d="M262.5,20.2c.8,0,4.9-.2,5.2.2.1.2-.1.3-.1.4v4.3l.4.4h4.9v35.8h-5v5c-1.8,0-3.5,0-5.3,0,0-1.7,0-3.4,0-5h5V25.4h-5c-.3,0,0-4.8,0-5.3Z"/>
    <path d="M42.9,25.4c-.1,11.9,0,23.9,0,35.8h-5V25.4c1.7,0,3.4,0,5,0Z"/>
    <path d="M42.9,61.2c1.8,0,3.5,0,5.3,0,0,1.7,0,3.4,0,5-1.8,0-3.5,0-5.3,0,0-1.7,0-3.4,0-5Z"/>
    <path d="M48.1,66.2c56.1.2,112.2-.2,168.2,0,0,1.7,0,3.4,0,5-56.1-.2-112.2.2-168.2,0,0-1.7,0-3.4,0-5Z"/>
    <path d="M262.5,66.2c0,1.7,0,3.4,0,5-8.5,0-17,0-25.4,0,0-1.7,0-3.4,0-5,8.5,0,17,0,25.4,0Z"/>
    <path d="M216.4,71.3c1.8,0,3.5,0,5.3,0,0,3.4,0,6.9,0,10.3-.8,0-4.9.2-5.2-.2-.2-3.4,0-6.7-.1-10.1Z"/>
    <path d="M237,71.3c0,3.4,0,6.9,0,10.3-1.8,0-3.5,0-5.3,0v-10.3c1.8,0,3.5,0,5.3,0Z"/>
    <path d="M221.7,81.6c1.7,0,3.4,0,5,0,0,1.7,0,3.4,0,5-1.7,0-3.4,0-5,0,0-1.7,0-3.4,0-5Z"/>
    <path d="M237,81.6c1.7,0,3.4,0,5,0v10.1h5v5.3h-10l-.4-.4v-4.3c0,0,.4-.3.2-.4l-10.3-.2c0-1.7,0-3.4,0-5,3.4,0,6.9,0,10.3,0,0-1.7,0-3.4,0-5Z"/>
  </g>
  <g>
    <path class="st1" d="M112.2,30.5c0-.8,0-1.7,0-2.5h5c0,.8,0,1.7,0,2.5.8,0,1.7,0,2.5,0v2.5h2.5c0,.8,0,1.7,0,2.5,2.5,0,5,0,7.5,0,0,.8,0,1.7,0,2.5.8,0,1.7,0,2.5,0v5c-.8,0-1.7,0-2.5,0,0,.8,0,1.7,0,2.5-.8,0-1.7,0-2.5,0,0,1.7,0,3.4,0,5,.8,0,1.7,0,2.5,0v5c-.8,0-1.7,0-2.5,0,0-1.7,0-3.4,0-5-.8,0-1.7,0-2.5,0v-5c.8,0,1.7,0,2.5,0,0-.8,0-1.7,0-2.5.8,0,1.7,0,2.5,0,0-1.7,0-3.4,0-5-2.5,0-5,0-7.5,0,0-.8,0-1.7,0-2.5-1.7,0-3.4,0-5,0,0-1.7,0-3.4,0-5-1.7,0-3.4,0-5,0,0,1.7,0,3.4,0,5-1.7,0-3.4,0-5,0,0,.8,0,1.7,0,2.5-2.5,0-5,0-7.5,0,0,1.7,0,3.4,0,5,.8,0,1.7,0,2.5,0,0,.8,0,1.7,0,2.5.8,0,1.7,0,2.5,0v5c-.8,0-1.7,0-2.5,0,0,1.7,0,3.4,0,5,1.7,0,3.4,0,5,0,0-.8,0-1.7,0-2.5,1.7,0,3.4,0,5,0,0-.8,0-1.7,0-2.5h5c0,.8,0,1.7,0,2.5,1.7,0,3.4,0,5,0,0,.8,0,1.7,0,2.5,1.7,0,3.4,0,5,0,0,.8,0,1.7,0,2.5h-5c0-.8,0-1.7,0-2.5-1.7,0-3.4,0-5,0,0-.8,0-1.7,0-2.5-1.7,0-3.4,0-5,0,0,.8,0,1.7,0,2.5-1.7,0-3.4,0-5,0,0,.8,0,1.7,0,2.5h-5c0-.8,0-1.7,0-2.5-.8,0-1.7,0-2.5,0v-5c.8,0,1.7,0,2.5,0,0-1.7,0-3.4,0-5-.8,0-1.7,0-2.5,0,0-.8,0-1.7,0-2.5-.8,0-1.7,0-2.5,0v-5c.8,0,1.7,0,2.5,0,0-.8,0-1.7,0-2.5,2.5,0,5,0,7.5,0,0-.8,0-1.7,0-2.5h2.5v-2.5c.8,0,1.7,0,2.5,0Z"/>
    <path class="st3" d="M117.2,30.5c0,1.7,0,3.4,0,5,1.7,0,3.4,0,5,0,0,.8,0,1.7,0,2.5,2.5,0,5,0,7.5,0,0,1.7,0,3.4,0,5-.8,0-1.7,0-2.5,0,0,.8,0,1.7,0,2.5-.8,0-1.7,0-2.5,0v5c.8,0,1.7,0,2.5,0,0,1.7,0,3.4,0,5-1.7,0-3.4,0-5,0,0-.8,0-1.7,0-2.5-1.7,0-3.4,0-5,0,0-.8,0-1.7,0-2.5h-5c0,.8,0,1.7,0,2.5-1.7,0-3.4,0-5,0,0,.8,0,1.7,0,2.5-1.7,0-3.4,0-5,0,0-1.7,0-3.4,0-5,.8,0,1.7,0,2.5,0v-5c-.8,0-1.7,0-2.5,0,0-.8,0-1.7,0-2.5-.8,0-1.7,0-2.5,0,0-1.7,0-3.4,0-5,2.5,0,5,0,7.5,0,0-.8,0-1.7,0-2.5,1.7,0,3.4,0,5,0,0-1.7,0-3.4,0-5,1.7,0,3.4,0,5,0Z"/>
  </g>
  <g>
    <path class="st1" d="M172.2,30.5c0-.8,0-1.7,0-2.5h5c0,.8,0,1.7,0,2.5.8,0,1.7,0,2.5,0v2.5h2.5c0,.8,0,1.7,0,2.5,2.5,0,5,0,7.5,0,0,.8,0,1.7,0,2.5.8,0,1.7,0,2.5,0v5c-.8,0-1.7,0-2.5,0,0,.8,0,1.7,0,2.5-.8,0-1.7,0-2.5,0,0,1.7,0,3.4,0,5,.8,0,1.7,0,2.5,0v5c-.8,0-1.7,0-2.5,0,0-1.7,0-3.4,0-5-.8,0-1.7,0-2.5,0v-5c.8,0,1.7,0,2.5,0,0-.8,0-1.7,0-2.5.8,0,1.7,0,2.5,0,0-1.7,0-3.4,0-5-2.5,0-5,0-7.5,0,0-.8,0-1.7,0-2.5-1.7,0-3.4,0-5,0,0-1.7,0-3.4,0-5-1.7,0-3.4,0-5,0,0,1.7,0,3.4,0,5-1.7,0-3.4,0-5,0,0,.8,0,1.7,0,2.5-2.5,0-5,0-7.5,0,0,1.7,0,3.4,0,5,.8,0,1.7,0,2.5,0,0,.8,0,1.7,0,2.5.8,0,1.7,0,2.5,0v5c-.8,0-1.7,0-2.5,0,0,1.7,0,3.4,0,5,1.7,0,3.4,0,5,0,0-.8,0-1.7,0-2.5,1.7,0,3.4,0,5,0,0-.8,0-1.7,0-2.5h5c0,.8,0,1.7,0,2.5,1.7,0,3.4,0,5,0,0,.8,0,1.7,0,2.5,1.7,0,3.4,0,5,0,0,.8,0,1.7,0,2.5h-5c0-.8,0-1.7,0-2.5-1.7,0-3.4,0-5,0,0-.8,0-1.7,0-2.5-1.7,0-3.4,0-5,0,0,.8,0,1.7,0,2.5-1.7,0-3.4,0-5,0,0,.8,0,1.7,0,2.5h-5c0-.8,0-1.7,0-2.5-.8,0-1.7,0-2.5,0v-5c.8,0,1.7,0,2.5,0,0-1.7,0-3.4,0-5-.8,0-1.7,0-2.5,0,0-.8,0-1.7,0-2.5-.8,0-1.7,0-2.5,0v-5c.8,0,1.7,0,2.5,0,0-.8,0-1.7,0-2.5,2.5,0,5,0,7.5,0,0-.8,0-1.7,0-2.5h2.5v-2.5c.8,0,1.7,0,2.5,0Z"/>
    <path class="st0" d="M177.2,30.5c0,1.7,0,3.4,0,5,1.7,0,3.4,0,5,0,0,.8,0,1.7,0,2.5,2.5,0,5,0,7.5,0,0,1.7,0,3.4,0,5-.8,0-1.7,0-2.5,0,0,.8,0,1.7,0,2.5-.8,0-1.7,0-2.5,0v5c.8,0,1.7,0,2.5,0,0,1.7,0,3.4,0,5-1.7,0-3.4,0-5,0,0-.8,0-1.7,0-2.5-1.7,0-3.4,0-5,0,0-.8,0-1.7,0-2.5h-5c0,.8,0,1.7,0,2.5-1.7,0-3.4,0-5,0,0,.8,0,1.7,0,2.5-1.7,0-3.4,0-5,0,0-1.7,0-3.4,0-5,.8,0,1.7,0,2.5,0v-5c-.8,0-1.7,0-2.5,0,0-.8,0-1.7,0-2.5-.8,0-1.7,0-2.5,0,0-1.7,0-3.4,0-5,2.5,0,5,0,7.5,0,0-.8,0-1.7,0-2.5,1.7,0,3.4,0,5,0,0-1.7,0-3.4,0-5,1.7,0,3.4,0,5,0Z"/>
  </g>
  <path d="M222.8,48.6v-4.4h8.9v-4.4h-13.3v4.4h-4.4v-4.4h4.4v-4.4h13.3v4.4h4.4v4.4h-4.4v4.4h-8.9ZM222.8,57.5v-4.4h4.4v4.4h-4.4Z"/>
  <path d="M170.3,48.3v-1.5h1.5v-1.5h1.5v-1.5h-1.5v-1.5h-1.5v-1.5h1.5v1.5h1.5v1.5h1.5v-1.5h1.5v-1.5h1.5v1.5h-1.5v1.5h-1.5v1.5h1.5v1.5h1.5v1.5h-1.5v-1.5h-1.5v-1.5h-1.5v1.5h-1.5v1.5h-1.5Z"/>
  <path d="M113.2,47.5h-1.5v-1.5h1.5v1.5ZM111.7,46h-1.5v-1.5h1.5v1.5ZM110.2,44.5h-1.5v-1.5h1.5v1.5ZM114.7,46h-1.5v-1.5h1.5v1.5ZM116.2,44.5h-1.5v-1.5h1.5v1.5ZM117.7,43h-1.5v-1.5h1.5v1.5ZM119.2,41.5h-1.5v-1.5h1.5v1.5ZM120.7,40h-1.5v-1.5h1.5v1.5Z"/>
</svg>