<?xml version="1.0" encoding="UTF-8"?>
<svg id="Layer_1" xmlns="http://www.w3.org/2000/svg" version="1.1" viewBox="0 0 536.3 459.5">
  <!-- Generator: Adobe Illustrator 29.8.2, SVG Export Plug-In . SVG Version: 2.1.1 Build 3)  -->
  <defs>
    <style>
      .st0 {
        fill: #060604;
      }

      .st1 {
        fill: #ffdd15;
      }
    </style>
  </defs>
  <path class="st0" d="M229.8,38.3c0-12.7,0-25.6,0-38.3h76.6c0,12.7,0,25.6,0,38.3,12.7,0,25.6,0,38.3,0v38.3h38.3c.2,12.7-.2,25.6,0,38.3,38.3.2,76.7-.1,114.9,0,0,12.7-.1,25.6,0,38.3,12.7,0,25.6,0,38.3,0v76.6c-12.7.2-25.6-.2-38.3,0,0,12.7,0,25.6,0,38.3-12.7.1-25.6-.2-38.3,0-.2,25.5,0,51.1,0,76.6,12.7.2,25.6-.2,38.3,0v76.6c-12.7,0-25.6,0-38.3,0,.2-25.5,0-51.1,0-76.6-12.7-.2-25.6.2-38.3,0v-76.6c12.7-.2,25.6.2,38.3,0,0-12.7,0-25.6,0-38.3,12.7-.1,25.6.2,38.3,0,.2-25.5.2-51.1,0-76.6-38.3-.3-76.7.2-114.9,0-.1-12.7.2-25.6,0-38.3-25.5-.1-51.1,0-76.6,0-.1-25.5.2-51.1,0-76.6-25.5-.2-51.1-.2-76.6,0-.2,25.5.1,51.1,0,76.6-25.5,0-51.1-.1-76.6,0-.2,12.7.1,25.6,0,38.3-38.3.2-76.7-.3-114.9,0-.2,25.5-.2,51.1,0,76.6,12.7.2,25.6-.1,38.3,0,0,12.7-.1,25.6,0,38.3,12.7.2,25.6-.2,38.3,0v76.6c-12.7.2-25.6-.2-38.3,0,0,25.5-.2,51.1,0,76.6,25.5.2,51.1.1,76.6,0,.2-12.7-.1-25.6,0-38.3,25.5,0,51.1.1,76.6,0,.2-12.7-.2-25.6,0-38.3h76.6c.2,12.7-.2,25.6,0,38.3,25.5.1,51.1,0,76.6,0,.1,12.7-.2,25.6,0,38.3,25.5.1,51.1.2,76.6,0,0,12.7,0,25.6,0,38.3h-76.6c-.2-12.7.2-25.6,0-38.3-25.5-.1-51.1,0-76.6,0-.1-12.7.2-25.6,0-38.3-25.5-.1-51.1-.1-76.6,0-.2,12.7.1,25.6,0,38.3-25.5,0-51.1-.1-76.6,0-.2,12.7.2,25.6,0,38.3h-76.6c0-12.7,0-25.6,0-38.3-12.7,0-25.6,0-38.3,0v-76.6c12.7-.2,25.6.2,38.3,0,0-25.5.2-51.1,0-76.6-12.7-.2-25.6.1-38.3,0,0-12.7.1-25.6,0-38.3-12.7-.2-25.6.2-38.3,0v-76.6c12.7,0,25.6,0,38.3,0,0-12.7,0-25.6,0-38.3,38.3-.1,76.7.2,114.9,0,.2-12.7-.2-25.6,0-38.3h38.3v-38.3c12.7,0,25.6,0,38.3,0Z"/>
  <path class="st1" d="M306.4,38.3c.2,25.5-.1,51.1,0,76.6,25.5,0,51.1-.1,76.6,0,.2,12.7-.1,25.6,0,38.3,38.3.2,76.7-.3,114.9,0,.2,25.5.2,51.1,0,76.6-12.7.2-25.6-.1-38.3,0,0,12.7.1,25.6,0,38.3-12.7.2-25.6-.2-38.3,0v76.6c12.7.2,25.6-.2,38.3,0,0,25.5.2,51.1,0,76.6-25.5.2-51.1.1-76.6,0-.2-12.7.1-25.6,0-38.3-25.5,0-51.1.1-76.6,0-.2-12.7.2-25.6,0-38.3h-76.6c-.2,12.7.2,25.6,0,38.3-25.5.1-51.1,0-76.6,0-.1,12.7.2,25.6,0,38.3-25.5.1-51.1.2-76.6,0-.2-25.5,0-51.1,0-76.6,12.7-.2,25.6.2,38.3,0v-76.6c-12.7-.2-25.6.2-38.3,0,0-12.7,0-25.6,0-38.3-12.7-.1-25.6.2-38.3,0-.2-25.5-.2-51.1,0-76.6,38.3-.3,76.7.2,114.9,0,.1-12.7-.2-25.6,0-38.3,25.5-.1,51.1,0,76.6,0,.1-25.5-.2-51.1,0-76.6,25.5-.2,51.1-.2,76.6,0Z"/>
</svg>